HIERARCHY
ROOT Root
{
	OFFSET 0.000000 0.000000 0.000000
	CHANNELS 6 Xposition Yposition Zposition Xrotation Yrotation Zrotation
	JOINT Hips
	{
		OFFSET -0.000001 93.996948 3.948267
		CHANNELS 6 Xposition Yposition Zposition Xrotation Yrotation Zrotation
		JOINT Spine1
		{
			OFFSET 0.000032 8.483833 -3.948274
			CHANNELS 6 Xposition Yposition Zposition Xrotation Yrotation Zrotation
			JOINT Spine2
			{
				OFFSET 0.000001 7.550011 0.000001
				CHANNELS 6 Xposition Yposition Zposition Xrotation Yrotation Zrotation
				JOINT Spine3
				{
					OFFSET 0.000001 7.550003 -0.000000
					CHANNELS 6 Xposition Yposition Zposition Xrotation Yrotation Zrotation
					JOINT Spine4
					{
						OFFSET -0.000030 12.748734 0.000001
						CHANNELS 6 Xposition Yposition Zposition Xrotation Yrotation Zrotation
						JOINT Neck
						{
							OFFSET 0.000001 20.150330 -0.000028
							CHANNELS 6 Xposition Yposition Zposition Xrotation Yrotation Zrotation
							JOINT Head
							{
								OFFSET -0.000009 11.100937 0.000011
								CHANNELS 6 Xposition Yposition Zposition Xrotation Yrotation Zrotation
								JOINT HeadTip
								{
									OFFSET 0.000001 16.853577 0.000000
									CHANNELS 6 Xposition Yposition Zposition Xrotation Yrotation Zrotation
									End Site
									{
										OFFSET -0.000004 -16.853577 -0.000011
									}
								}
							}
						}
						JOINT RightShoulder
						{
							OFFSET -7.000000 12.368073 1.903788
							CHANNELS 6 Xposition Yposition Zposition Xrotation Yrotation Zrotation
							JOINT RightArm
							{
								OFFSET -13.607778 -0.000031 -0.000001
								CHANNELS 6 Xposition Yposition Zposition Xrotation Yrotation Zrotation
								JOINT RightForeArm
								{
									OFFSET -27.102148 -0.000046 0.000049
									CHANNELS 6 Xposition Yposition Zposition Xrotation Yrotation Zrotation
									JOINT RightHand
									{
										OFFSET -28.299988 -0.000031 -0.000030
										CHANNELS 6 Xposition Yposition Zposition Xrotation Yrotation Zrotation
										JOINT RightFinger1Metacarpal
										{
											OFFSET -2.078003 -0.102997 2.784805
											CHANNELS 6 Xposition Yposition Zposition Xrotation Yrotation Zrotation
											JOINT RightFinger1Proximal
											{
												OFFSET -3.454681 0.000015 1.994653
												CHANNELS 6 Xposition Yposition Zposition Xrotation Yrotation Zrotation
												JOINT RightFinger1Distal
												{
													OFFSET -3.027802 -0.000015 -0.000005
													CHANNELS 6 Xposition Yposition Zposition Xrotation Yrotation Zrotation
													JOINT RightFinger1Tip
													{
														OFFSET -3.458977 0.000015 0.000036
														CHANNELS 6 Xposition Yposition Zposition Xrotation Yrotation Zrotation
														End Site
														{
															OFFSET 3.458984 0.000000 -0.000009
														}
													}
												}
											}
										}
										JOINT RightFinger5Metacarpal
										{
											OFFSET -2.487854 -0.102982 -1.487572
											CHANNELS 6 Xposition Yposition Zposition Xrotation Yrotation Zrotation
											JOINT RightFinger5Proximal
											{
												OFFSET -4.460060 -0.000031 -1.623384
												CHANNELS 6 Xposition Yposition Zposition Xrotation Yrotation Zrotation
												JOINT RightFinger5Medial
												{
													OFFSET -3.500008 -0.000015 0.000003
													CHANNELS 6 Xposition Yposition Zposition Xrotation Yrotation Zrotation
													JOINT RightFinger5Distal
													{
														OFFSET -2.199997 0.000015 -0.000003
														CHANNELS 6 Xposition Yposition Zposition Xrotation Yrotation Zrotation
														JOINT RightFinger5Tip
														{
															OFFSET -2.240929 0.000046 -0.000018
															CHANNELS 6 Xposition Yposition Zposition Xrotation Yrotation Zrotation
															End Site
															{
																OFFSET 2.240921 0.000000 0.000004
															}
														}
													}
												}
											}
										}
										JOINT RightFinger4Metacarpal
										{
											OFFSET -2.742981 -0.102997 -0.547513
											CHANNELS 6 Xposition Yposition Zposition Xrotation Yrotation Zrotation
											JOINT RightFinger4Proximal
											{
												OFFSET -4.956093 -0.000015 -0.873949
												CHANNELS 6 Xposition Yposition Zposition Xrotation Yrotation Zrotation
												JOINT RightFinger4Medial
												{
													OFFSET -4.300003 -0.000046 0.000009
													CHANNELS 6 Xposition Yposition Zposition Xrotation Yrotation Zrotation
													JOINT RightFinger4Distal
													{
														OFFSET -2.773193 0.000000 0.000001
														CHANNELS 6 Xposition Yposition Zposition Xrotation Yrotation Zrotation
														JOINT RightFinger4Tip
														{
															OFFSET -2.699982 0.000031 -0.000002
															CHANNELS 6 Xposition Yposition Zposition Xrotation Yrotation Zrotation
															End Site
															{
																OFFSET 2.699982 0.000000 0.000005
															}
														}
													}
												}
											}
										}
										JOINT RightFinger3Metacarpal
										{
											OFFSET -2.767426 -0.102982 0.544732
											CHANNELS 6 Xposition Yposition Zposition Xrotation Yrotation Zrotation
											JOINT RightFinger3Proximal
											{
												OFFSET -5.364990 -0.000046 -0.000019
												CHANNELS 6 Xposition Yposition Zposition Xrotation Yrotation Zrotation
												JOINT RightFinger3Medial
												{
													OFFSET -4.699974 0.000000 0.000005
													CHANNELS 6 Xposition Yposition Zposition Xrotation Yrotation Zrotation
													JOINT RightFinger3Distal
													{
														OFFSET -3.099998 -0.000015 0.000002
														CHANNELS 6 Xposition Yposition Zposition Xrotation Yrotation Zrotation
														JOINT RightFinger3Tip
														{
															OFFSET -2.998215 0.000015 -0.000022
															CHANNELS 6 Xposition Yposition Zposition Xrotation Yrotation Zrotation
															End Site
															{
																OFFSET 2.998215 0.000000 0.000005
															}
														}
													}
												}
											}
										}
										JOINT RightFinger2Metacarpal
										{
											OFFSET -2.645576 -0.102982 1.603400
											CHANNELS 6 Xposition Yposition Zposition Xrotation Yrotation Zrotation
											JOINT RightFinger2Proximal
											{
												OFFSET -5.331604 -0.000031 0.940090
												CHANNELS 6 Xposition Yposition Zposition Xrotation Yrotation Zrotation
												JOINT RightFinger2Medial
												{
													OFFSET -4.499977 0.000015 0.000003
													CHANNELS 6 Xposition Yposition Zposition Xrotation Yrotation Zrotation
													JOINT RightFinger2Distal
													{
														OFFSET -2.768509 0.000000 0.000002
														CHANNELS 6 Xposition Yposition Zposition Xrotation Yrotation Zrotation
														JOINT RightFinger2Tip
														{
															OFFSET -2.713150 0.000031 -0.000018
															CHANNELS 6 Xposition Yposition Zposition Xrotation Yrotation Zrotation
															End Site
															{
																OFFSET 2.713150 0.000000 0.000005
															}
														}
													}
												}
											}
										}
									}
								}
							}
						}
						JOINT LeftShoulder
						{
							OFFSET 7.000000 12.368057 1.903800
							CHANNELS 6 Xposition Yposition Zposition Xrotation Yrotation Zrotation
							JOINT LeftArm
							{
								OFFSET 13.607780 0.000015 0.000002
								CHANNELS 6 Xposition Yposition Zposition Xrotation Yrotation Zrotation
								JOINT LeftForeArm
								{
									OFFSET 27.102148 -0.000031 0.000091
									CHANNELS 6 Xposition Yposition Zposition Xrotation Yrotation Zrotation
									JOINT LeftHand
									{
										OFFSET 28.299988 -0.000031 0.000006
										CHANNELS 6 Xposition Yposition Zposition Xrotation Yrotation Zrotation
										JOINT LeftFinger5Metacarpal
										{
											OFFSET 2.487854 -0.102997 -1.487590
											CHANNELS 6 Xposition Yposition Zposition Xrotation Yrotation Zrotation
											JOINT LeftFinger5Proximal
											{
												OFFSET 4.460068 -0.000031 -1.623358
												CHANNELS 6 Xposition Yposition Zposition Xrotation Yrotation Zrotation
												JOINT LeftFinger5Medial
												{
													OFFSET 3.499977 -0.000015 0.000003
													CHANNELS 6 Xposition Yposition Zposition Xrotation Yrotation Zrotation
													JOINT LeftFinger5Distal
													{
														OFFSET 2.199982 0.000015 0.000011
														CHANNELS 6 Xposition Yposition Zposition Xrotation Yrotation Zrotation
														JOINT LeftFinger5Tip
														{
															OFFSET 2.240929 0.000000 -0.000019
															CHANNELS 6 Xposition Yposition Zposition Xrotation Yrotation Zrotation
															End Site
															{
																OFFSET -2.240936 0.000000 0.000004
															}
														}
													}
												}
											}
										}
										JOINT LeftFinger4Metacarpal
										{
											OFFSET 2.742981 -0.102982 -0.547558
											CHANNELS 6 Xposition Yposition Zposition Xrotation Yrotation Zrotation
											JOINT LeftFinger4Proximal
											{
												OFFSET 4.956070 -0.000061 -0.873883
												CHANNELS 6 Xposition Yposition Zposition Xrotation Yrotation Zrotation
												JOINT LeftFinger4Medial
												{
													OFFSET 4.300003 0.000031 0.000001
													CHANNELS 6 Xposition Yposition Zposition Xrotation Yrotation Zrotation
													JOINT LeftFinger4Distal
													{
														OFFSET 2.773186 -0.000046 0.000005
														CHANNELS 6 Xposition Yposition Zposition Xrotation Yrotation Zrotation
														JOINT LeftFinger4Tip
														{
															OFFSET 2.699989 0.000046 -0.000012
															CHANNELS 6 Xposition Yposition Zposition Xrotation Yrotation Zrotation
															End Site
															{
																OFFSET -2.699997 0.000000 0.000004
															}
														}
													}
												}
											}
										}
										JOINT LeftFinger3Metacarpal
										{
											OFFSET 2.767418 -0.102982 0.544737
											CHANNELS 6 Xposition Yposition Zposition Xrotation Yrotation Zrotation
											JOINT LeftFinger3Proximal
											{
												OFFSET 5.364960 -0.000015 -0.000021
												CHANNELS 6 Xposition Yposition Zposition Xrotation Yrotation Zrotation
												JOINT LeftFinger3Medial
												{
													OFFSET 4.699989 0.000046 0.000009
													CHANNELS 6 Xposition Yposition Zposition Xrotation Yrotation Zrotation
													JOINT LeftFinger3Distal
													{
														OFFSET 3.099983 -0.000015 -0.000002
														CHANNELS 6 Xposition Yposition Zposition Xrotation Yrotation Zrotation
														JOINT LeftFinger3Tip
														{
															OFFSET 2.998222 0.000015 -0.000022
															CHANNELS 6 Xposition Yposition Zposition Xrotation Yrotation Zrotation
															End Site
															{
																OFFSET -2.998215 0.000000 0.000006
															}
														}
													}
												}
											}
										}
										JOINT LeftFinger2Metacarpal
										{
											OFFSET 2.645531 -0.103012 1.603395
											CHANNELS 6 Xposition Yposition Zposition Xrotation Yrotation Zrotation
											JOINT LeftFinger2Proximal
											{
												OFFSET 5.331612 0.000046 0.940113
												CHANNELS 6 Xposition Yposition Zposition Xrotation Yrotation Zrotation
												JOINT LeftFinger2Medial
												{
													OFFSET 4.499985 -0.000061 0.000007
													CHANNELS 6 Xposition Yposition Zposition Xrotation Yrotation Zrotation
													JOINT LeftFinger2Distal
													{
														OFFSET 2.768494 0.000015 -0.000012
														CHANNELS 6 Xposition Yposition Zposition Xrotation Yrotation Zrotation
														JOINT LeftFinger2Tip
														{
															OFFSET 2.713142 0.000046 -0.000042
															CHANNELS 6 Xposition Yposition Zposition Xrotation Yrotation Zrotation
															End Site
															{
																OFFSET -2.713135 0.000000 0.000002
															}
														}
													}
												}
											}
										}
										JOINT LeftFinger1Metacarpal
										{
											OFFSET 2.077995 -0.103027 2.784891
											CHANNELS 6 Xposition Yposition Zposition Xrotation Yrotation Zrotation
											JOINT LeftFinger1Proximal
											{
												OFFSET 3.454666 -0.000031 1.994555
												CHANNELS 6 Xposition Yposition Zposition Xrotation Yrotation Zrotation
												JOINT LeftFinger1Distal
												{
													OFFSET 3.027802 -0.000031 -0.000045
													CHANNELS 6 Xposition Yposition Zposition Xrotation Yrotation Zrotation
													JOINT LeftFinger1Tip
													{
														OFFSET 3.458969 -0.000015 0.000020
														CHANNELS 6 Xposition Yposition Zposition Xrotation Yrotation Zrotation
														End Site
														{
															OFFSET -3.458969 0.000000 -0.000014
														}
													}
												}
											}
										}
									}
								}
							}
						}
					}
				}
			}
		}
		JOINT RightThigh
		{
			OFFSET -8.099951 0.000000 -0.000000
			CHANNELS 6 Xposition Yposition Zposition Xrotation Yrotation Zrotation
			JOINT RightShin
			{
				OFFSET 0.000001 -43.200016 0.000011
				CHANNELS 6 Xposition Yposition Zposition Xrotation Yrotation Zrotation
				JOINT RightFoot
				{
					OFFSET -0.062554 -43.299969 0.000008
					CHANNELS 6 Xposition Yposition Zposition Xrotation Yrotation Zrotation
					JOINT RightToe
					{
						OFFSET -0.000010 -6.239449 13.169396
						CHANNELS 6 Xposition Yposition Zposition Xrotation Yrotation Zrotation
						JOINT RightToeTip
						{
							OFFSET -0.000005 -1.257148 7.445690
							CHANNELS 6 Xposition Yposition Zposition Xrotation Yrotation Zrotation
							End Site
							{
								OFFSET 0.000004 0.000001 -7.551075
							}
						}
					}
				}
			}
		}
		JOINT LeftThigh
		{
			OFFSET 8.099950 0.000000 -0.000001
			CHANNELS 6 Xposition Yposition Zposition Xrotation Yrotation Zrotation
			JOINT LeftShin
			{
				OFFSET -0.000025 -43.199986 0.000011
				CHANNELS 6 Xposition Yposition Zposition Xrotation Yrotation Zrotation
				JOINT LeftFoot
				{
					OFFSET 0.062444 -43.299969 0.000024
					CHANNELS 6 Xposition Yposition Zposition Xrotation Yrotation Zrotation
					JOINT LeftToe
					{
						OFFSET -0.000022 -6.239417 13.169407
						CHANNELS 6 Xposition Yposition Zposition Xrotation Yrotation Zrotation
						JOINT LeftToeTip
						{
							OFFSET 0.000001 -1.257140 7.445688
							CHANNELS 6 Xposition Yposition Zposition Xrotation Yrotation Zrotation
							End Site
							{
								OFFSET -0.000007 -0.000007 -7.551071
							}
						}
					}
				}
			}
		}
	}
}
MOTION
Frames: 2
Frame Time: 0.033333
0.000000 0.000000 0.000000 -0.000000 0.000000 -0.000000 7.739338 95.736351 0.000001 15.692213 13.124071 -2.557234 0.000032 8.483841 -3.948275 -0.000001 -0.000000 0.000009 0.000000 7.549988 -0.000000 -0.000002 -0.000000 -0.000000 0.000002 7.550011 -0.000000 0.000001 -0.000001 -0.000000 -0.000030 12.748718 0.000002 -0.000006 -23.088777 -0.000002 0.000000 20.150330 -0.000029 0.000001 0.000001 -0.000000 -0.000010 11.100937 0.000013 -0.008445 0.443883 0.080746 0.000021 16.868805 3.990059 -0.000024 -0.000000 -0.000014 -6.999999 12.368060 1.903785 0.000087 0.000000 -0.000051 -13.607782 -0.000015 0.000002 -13.885997 17.667182 87.492326 -27.102131 -0.000050 -0.000038 0.272596 19.911110 -1.785748 -28.299973 -0.000036 -0.000094 -0.000003 -0.000003 -0.000007 -2.077998 -0.102928 2.784874 58.687267 -1.786371 -12.439807 -3.454692 -0.000016 1.994553 0.384966 23.648579 6.196491 -3.027786 -0.000002 0.000025 0.354960 -6.350834 6.390195 -4.039383 -0.234914 3.976841 0.000010 0.000127 0.000088 -2.487880 -0.102989 -1.487614 -5.877651 -0.587587 5.118791 -4.460032 0.000001 -1.623341 -13.699203 -10.889724 13.511410 -3.499992 -0.000022 -0.000004 -0.000031 -0.000000 18.000007 -2.199966 0.000041 -0.000009 -0.000031 -0.000002 18.000026 -2.553096 -0.229718 3.903049 0.000067 -0.000008 -0.000033 -2.743003 -0.102979 -0.547553 -2.720100 -0.128111 2.547552 -4.956057 0.000017 -0.873908 -8.112392 -1.343035 16.789778 -4.300003 -0.000013 -0.000000 -0.000035 -0.000002 18.000009 -2.773197 0.000008 -0.000010 -0.000039 -0.000004 18.000002 -2.888393 -0.228414 3.873459 0.000089 -0.000012 -0.000027 -2.767425 -0.102992 0.544725 -0.000000 -0.000015 -0.000102 -5.364962 -0.000006 -0.000044 -1.673202 5.134991 18.075085 -4.699993 0.000001 -0.000004 -0.000031 0.000000 18.000006 -3.099983 -0.000029 0.000000 -0.000034 -0.000000 18.000016 -3.498001 -0.233163 3.935192 0.000075 -0.000021 -0.000001 -2.645564 -0.103017 1.603409 1.230945 -0.002501 -0.217159 -5.331576 -0.000021 0.940074 0.562044 8.287807 17.910744 -4.499962 0.000023 -0.000011 -0.000026 -0.000006 18.000007 -2.768487 -0.000008 -0.000006 -0.000026 -0.000008 18.000016 -2.943337 -0.229159 3.850902 0.000095 0.000001 0.000013 7.000001 12.368058 1.903799 -0.000009 0.000005 0.000003 13.607796 -0.000008 0.000004 2.874270 -8.527600 -75.083894 27.102123 -0.000027 0.000026 -0.441018 -15.103358 -3.181021 28.299997 -0.000030 -0.000099 -0.000000 0.000001 0.000024 2.487873 -0.102972 -1.487621 -5.877498 0.587638 -5.118830 4.460049 -0.000013 -1.623349 -13.699349 10.889680 -13.511461 3.500012 -0.000012 -0.000012 0.000062 -0.000006 -18.000012 2.199994 0.000049 0.000005 -0.000119 -0.000035 -18.000018 2.553027 -0.229759 3.902927 -0.000008 0.000154 0.000041 2.742978 -0.103000 -0.547552 -2.719966 0.128172 -2.547590 4.956048 -0.000046 -0.873902 -8.112526 1.342988 -16.789822 4.300007 0.000019 -0.000006 -0.000026 0.000007 -17.999983 2.773178 -0.000015 -0.000008 -0.000035 0.000011 -17.999997 2.888389 -0.228367 3.873314 0.000037 0.000153 0.000032 2.767441 -0.102965 0.544727 -0.000004 0.000010 0.000034 5.364973 0.000001 -0.000035 -1.673208 -5.134985 -18.075083 4.699997 0.000028 -0.000007 -0.000031 0.000011 -18.000055 3.100006 0.000002 -0.000015 -0.000038 -0.000011 -17.999992 3.498019 -0.233186 3.935060 0.000167 0.000192 0.000005 2.645578 -0.103009 1.603410 1.231093 0.002567 0.217094 5.331556 0.000025 0.940082 0.561894 -8.287863 -17.910732 4.499959 -0.000010 -0.000004 -0.000022 0.000006 -18.000041 2.768471 0.000015 -0.000019 -0.000023 0.000002 -18.000016 2.943307 -0.229183 3.850749 0.000063 0.000166 -0.000001 2.077987 -0.102973 2.784885 58.687321 1.786378 12.439769 3.454666 -0.000003 1.994545 0.385063 -23.648587 -6.196400 3.027801 -0.000022 0.000019 0.354915 6.350774 -6.390226 4.039399 -0.235027 3.976640 0.000125 0.000051 -0.000147 -8.099950 -0.000000 -0.000001 1.414365 -2.506494 5.528468 0.000000 -43.200012 0.000018 -0.000010 0.010101 0.082776 -0.062555 -43.299992 0.000009 4.965774 0.022939 0.159724 -0.000008 -6.239440 13.169394 -10.914624 0.802755 -0.000005 0.000043 -1.260235 11.393937 0.000030 0.000018 -0.000008 8.099952 0.000005 -0.000000 -12.137543 4.892522 1.635434 -0.000027 -43.199986 0.000015 15.392093 -0.006744 -0.020751 0.062444 -43.299976 0.000015 -0.266599 0.104426 0.579180 -0.000022 -6.239413 13.169411 -13.984584 0.767155 0.000030 -0.000105 -1.260184 11.393934 0.000018 -0.000048 -0.000021 
0.000000 0.000000 0.000000 -0.000000 0.000000 -0.000000 8.147496 93.955856 0.292708 15.258170 13.858409 -2.441643 0.000033 8.483833 -3.948273 -0.000000 -0.000001 0.000009 0.000001 7.550003 -0.000002 -0.000002 -0.000001 0.000000 0.000001 7.550011 0.000002 0.000001 0.000001 -0.000001 -0.000026 12.748749 0.000002 0.000003 -23.233828 -0.000001 0.000003 20.150345 -0.000023 0.000001 -0.000001 -0.000000 -0.000011 11.100983 0.000013 0.314270 -0.011250 -0.094877 0.000020 16.868774 3.990057 -0.000025 0.000001 -0.000014 -6.999997 12.368075 1.903792 0.000088 -0.000000 -0.000051 -13.607780 -0.000030 0.000004 -13.234098 18.137446 86.632658 -27.102131 -0.000051 -0.000040 0.227597 19.634180 -1.512789 -28.299999 -0.000023 -0.000090 -0.000004 -0.000003 -0.000005 -2.078000 -0.102946 2.784889 58.687273 -1.786369 -12.439801 -3.454686 -0.000039 1.994543 0.384968 23.648577 6.196485 -3.027793 0.000005 0.000027 0.354960 -6.350830 6.390198 -4.039400 -0.234895 3.976833 0.000003 0.000124 0.000092 -2.487865 -0.103005 -1.487610 -5.877651 -0.587584 5.118791 -4.460036 -0.000005 -1.623349 -13.699201 -10.889720 13.511412 -3.499989 -0.000027 -0.000007 -0.000029 0.000001 18.000007 -2.199970 0.000011 -0.000006 -0.000030 0.000001 18.000021 -2.553106 -0.229719 3.903045 0.000066 -0.000008 -0.000032 -2.742996 -0.102995 -0.547550 -2.720099 -0.128108 2.547553 -4.956053 0.000017 -0.873912 -8.112381 -1.343027 16.789780 -4.299999 -0.000028 -0.000002 -0.000036 -0.000003 18.000007 -2.773178 0.000000 -0.000007 -0.000031 -0.000008 18.000001 -2.888398 -0.228408 3.873456 0.000089 -0.000011 -0.000022 -2.767424 -0.102993 0.544730 -0.000000 -0.000014 -0.000102 -5.364962 -0.000019 -0.000033 -1.673206 5.134988 18.075085 -4.699997 0.000007 -0.000008 -0.000032 -0.000004 18.000002 -3.099983 -0.000022 -0.000007 -0.000032 -0.000003 18.000004 -3.497991 -0.233188 3.935184 0.000074 -0.000019 -0.000001 -2.645573 -0.103003 1.603412 1.230944 -0.002500 -0.217159 -5.331564 -0.000014 0.940074 0.562040 8.287809 17.910740 -4.499951 0.000017 -0.000008 -0.000022 -0.000005 18.000007 -2.768494 -0.000009 -0.000004 -0.000028 -0.000008 18.000012 -2.943344 -0.229152 3.850909 0.000098 -0.000001 0.000013 7.000003 12.368058 1.903804 -0.000009 0.000004 0.000002 13.607777 -0.000019 0.000004 3.654605 -7.876899 -75.338086 27.102150 -0.000017 0.000033 -0.455641 -15.265478 -3.254289 28.300005 -0.000030 -0.000102 -0.000003 0.000001 0.000024 2.487878 -0.102974 -1.487620 -5.877493 0.587639 -5.118828 4.460052 -0.000009 -1.623339 -13.699340 10.889680 -13.511461 3.500008 -0.000010 -0.000014 0.000067 -0.000008 -18.000012 2.199967 0.000034 0.000004 -0.000123 -0.000038 -18.000018 2.553025 -0.229787 3.902925 -0.000008 0.000154 0.000048 2.742979 -0.102985 -0.547554 -2.719964 0.128171 -2.547589 4.956048 -0.000040 -0.873900 -8.112528 1.342989 -16.789822 4.300007 0.000036 -0.000007 -0.000029 0.000007 -17.999987 2.773174 -0.000021 -0.000006 -0.000024 0.000013 -18.000006 2.888377 -0.228359 3.873315 0.000038 0.000153 0.000037 2.767438 -0.102965 0.544724 -0.000001 0.000011 0.000035 5.364965 0.000007 -0.000040 -1.673214 -5.134985 -18.075081 4.700001 0.000034 -0.000007 -0.000027 0.000009 -18.000053 3.099991 0.000007 -0.000015 -0.000033 -0.000004 -17.999987 3.498010 -0.233198 3.935059 0.000165 0.000190 0.000009 2.645584 -0.102980 1.603411 1.231091 0.002566 0.217095 5.331556 0.000012 0.940081 0.561889 -8.287862 -17.910728 4.499978 -0.000014 -0.000003 -0.000022 0.000006 -18.000041 2.768509 -0.000000 -0.000021 -0.000022 -0.000000 -18.000016 2.943297 -0.229196 3.850748 0.000061 0.000164 -0.000004 2.077991 -0.102974 2.784869 58.687314 1.786380 12.439770 3.454664 -0.000016 1.994547 0.385062 -23.648587 -6.196396 3.027801 -0.000003 0.000018 0.354916 6.350772 -6.390227 4.039374 -0.235015 3.976642 0.000129 0.000049 -0.000147 -8.099950 -0.000007 0.000001 -5.794722 -3.392157 5.032786 0.000001 -43.199997 0.000015 16.541835 -0.004329 -0.015891 -0.062555 -43.299988 0.000013 -3.981962 0.025853 0.266965 -0.000009 -6.239442 13.169397 -16.374180 1.403435 -0.000011 0.000040 -1.260234 11.393939 0.000029 0.000017 -0.000008 8.099952 -0.000007 0.000001 -17.390205 3.766634 1.685998 -0.000026 -43.199993 0.000015 27.652040 0.012506 0.028140 0.062447 -43.299973 0.000014 -6.602285 0.038907 0.366212 -0.000020 -6.239414 13.169410 -14.152222 0.693512 0.000029 -0.000105 -1.260184 11.393935 0.000018 -0.000049 -0.000020 
